HIERARCHY
ROOT pelvis
{
  OFFSET 0 100 0
  CHANNELS 6 Xposition Yposition Zposition Zrotation Xrotation Yrotation
  JOINT pelvis_right_femur
  {
    OFFSET -10.78128 -3.44521 -0.5502486
    CHANNELS 3 Zrotation Xrotation Yrotation
    JOINT right_femur_tibia
    {
      OFFSET -0.8047443 -44.0398 -0.1307829
      CHANNELS 3 Zrotation Xrotation Yrotation
      JOINT right_tibia_foot
      {
        OFFSET 3.006224 -47.83518 -5
        CHANNELS 3 Zrotation Xrotation Yrotation
        End Site
        {
          OFFSET 0 -5 15
        }
      }
    }
  }
  JOINT pelvis_left_femur
  {
    OFFSET 10.78128 -3.44521 -0.5502486
    CHANNELS 3 Zrotation Xrotation Yrotation
    JOINT left_femur_tibia
    {
      OFFSET 0.8047443 -44.0398 -0.1307829
      CHANNELS 3 Zrotation Xrotation Yrotation
      JOINT left_tibia_foot
      {
        OFFSET -4.370144 -48.10324 -4.275266
        CHANNELS 3 Zrotation Xrotation Yrotation
        End Site
        {
          OFFSET 0 -5 15
        }
      }
    }
  }
  JOINT pelvis_spine1
  {
    OFFSET 0 6.468898 -3.129235
    CHANNELS 3 Zrotation Xrotation Yrotation
    JOINT spine1
    {
      OFFSET 0 23.15396 4.99043
      CHANNELS 3 Zrotation Xrotation Yrotation
      JOINT spine2
      {
        OFFSET 0 20.79997 -5.064912
        CHANNELS 3 Zrotation Xrotation Yrotation
        JOINT neck
        {
          OFFSET 0 14.38658 9.616178
          CHANNELS 3 Zrotation Xrotation Yrotation
          End Site
          {
            OFFSET 0 20 0
          }
        }
      }
      JOINT right_manubrium
      {
        OFFSET -5.722621 16.35077 3.967754
        CHANNELS 3 Zrotation Xrotation Yrotation
        JOINT right_clavicle
        {
          OFFSET -13.16364 1.694482 -4.693211
          CHANNELS 3 Zrotation Xrotation Yrotation
          JOINT right_humerus
          {
            OFFSET -28.5034 -0.3100689 -2.792744
            CHANNELS 3 Zrotation Xrotation Yrotation
            JOINT right_radius
            {
              OFFSET -25.15693 0.02248979 -1.271978
              CHANNELS 3 Zrotation Xrotation Yrotation
              End Site
              {
                OFFSET -15 0 0
              }
            }
          }
        }
      }
      JOINT left_manubrium
      {
        OFFSET 5.722621 16.35077 3.967754
        CHANNELS 3 Zrotation Xrotation Yrotation
        JOINT left_clavicle
        {
          OFFSET 13.16364 1.694482 -4.693211
          CHANNELS 3 Zrotation Xrotation Yrotation
          JOINT left_humerus
          {
            OFFSET 29.39168 -1.063119 -2.237045
            CHANNELS 3 Zrotation Xrotation Yrotation
            JOINT left_radius
            {
              OFFSET 24.59957 -0.9528479 0.9047498
              CHANNELS 3 Zrotation Xrotation Yrotation
              End Site
              {
                OFFSET 15 -0 -0
              }
            }
          }
        }
      }
    }
  }
}
MOTION
Frames: 9
Frame Time: 0.0416666666667
0 103.5113 0 0.7243734 -0.9147131 0.7230427 1.854291 -22.17001 4.74726 -0 33.73556 -0 -2.778834 -7.903195 -4.158055 -6.302625 11.84843 -17.08922 0 -1.052434 0 2.388526 -21.52975 19.98575 -3.822611 -1.002694 3.054539 2.213611 8.015502 -7.555579 1.247034 21.80314 7.254384 3.047342 -22.40726 8.899307 4.975323 -17.412 10.58772 85.45351 32.91741 -17.8177 -0 0 14.286 -12.668 9.143348 7.99406 6.020316 -19.04205 -2.484376 -89.21127 28.08162 16.03961 0 0 -19.05406 2.464804 12.17313 10.84914
0.4890807 102.8249 3.629387 0.7422571 -0.8368528 1.435086 1.855823 -22.19109 4.840458 -0 33.82576 -0 -2.702341 -8.082559 -4.165873 -6.3179 11.80533 -17.17195 0 -1.197059 0 2.376805 -21.57423 20.02778 -3.852425 -0.987923 3.067283 2.227853 7.961651 -7.553647 1.24279 21.79112 7.270732 3.059582 -22.4176 8.909191 5.063598 -17.38556 10.5816 85.32626 33.09103 -17.7571 -0 0 14.36423 -12.56372 9.131446 7.965009 6.016491 -18.96959 -2.432239 -89.26159 28.20544 16.0822 0 0 -19.01498 2.35844 12.12485 10.98255
0.8718341 101.9585 7.123135 0.3384069 -0.1023325 1.977534 2.854555 -25.41616 4.651342 -0 27.37663 -0 -3.893312 -8.964483 -3.954428 -5.821038 13.47951 -17.2077 0 -0.3225694 0 3.048954 -21.80092 19.77556 -3.471425 -1.236314 2.902774 2.674595 8.201035 -8.096889 1.146088 21.54285 7.25594 3.052241 -23.18283 8.9305 4.804417 -17.59015 10.75939 86.35545 33.20315 -19.45801 -0 0 13.48357 -11.77851 9.389408 7.392491 6.343891 -20.13699 -2.551537 -88.78778 27.45981 15.4332 0 0 -21.14871 3.843069 12.99887 9.153794
1.175843 100.9216 10.54355 0.05222733 0.2820759 2.421368 3.511588 -27.51597 4.40514 -0 22.94276 -0 -4.812813 -9.290003 -3.794964 -5.466986 14.63753 -17.12526 -0 0.3621874 -0 3.545821 -21.8966 19.56538 -3.174426 -1.431087 2.777072 2.951125 8.443616 -8.461434 1.086551 21.39408 7.221227 3.027317 -23.68596 8.931405 4.490166 -17.79019 10.88741 87.22411 32.99 -20.6561 -0 0 12.80355 -11.41784 9.575655 7.063292 6.568584 -21.02691 -2.706911 -88.42743 26.76165 14.98052 0 0 -22.6129 5.031197 13.6379 7.697887
1.396024 99.79934 13.96827 -0.1855752 0.5019717 2.764568 4.117742 -29.20317 4.25407 -0 19.13976 -0 -5.529998 -9.454611 -3.7623 -5.157071 15.6111 -16.8887 -0 2.125637 -0 3.668109 -21.78577 19.19149 -2.885601 -1.545995 2.678492 3.175397 8.65539 -8.761094 1.054804 21.29215 7.166053 3.003423 -24.00148 8.895322 4.231188 -17.81239 10.99203 88.0206 32.72924 -21.75644 -0 0 12.04485 -11.17025 9.761167 6.753226 6.723414 -21.7732 -2.85725 -88.00763 26.16087 14.38181 0 0 -23.92535 5.957864 14.02268 6.560628
1.541605 98.65695 17.48296 -0.3521856 0.4778415 3.022244 4.580797 -30.29953 4.075419 -0 16.30841 -0 -6.072966 -9.243232 -3.816896 -4.918309 16.3608 -16.46788 -0 4.630585 -0 3.497911 -21.48025 18.69604 -2.611702 -1.599449 2.59856 3.308133 8.876663 -8.968132 1.054561 21.25721 7.084543 2.969135 -24.11057 8.824468 3.947704 -17.72285 11.06977 88.78169 32.25697 -22.67604 -0 0 11.24081 -11.17457 9.933956 6.540419 6.803316 -22.38325 -3.04611 -87.55061 25.5739 13.70966 0 0 -24.96998 6.666977 14.20993 5.684321
1.620873 97.57685 21.17773 -0.442784 0.2323581 3.206176 4.928433 -30.81156 3.93216 -0 14.42822 -0 -6.382295 -8.749956 -3.989932 -4.752038 16.86352 -15.85996 -0 8.151218 -0 2.94826 -20.94458 18.05143 -2.356755 -1.568277 2.546682 3.358287 9.077373 -9.081762 1.08798 21.28605 6.978984 2.931903 -23.99339 8.714356 3.697386 -17.46218 11.11891 89.4539 31.67409 -23.41939 -0 0 10.38217 -11.37368 10.09821 6.39284 6.798745 -22.81662 -3.247773 -87.04674 25.07175 12.91941 0 0 -25.76097 7.061892 14.14995 5.181882
1.644408 96.63997 25.13907 -0.4573742 -0.2293832 3.328664 5.162994 -30.71409 3.820018 -0 13.47276 -0 -6.457297 -7.996958 -4.276369 -4.653309 17.08664 -15.06281 -0 12.66647 -0 2.033784 -20.16559 17.27624 -2.119888 -1.453185 2.526992 3.325434 9.258007 -9.099462 1.154709 21.37672 6.847954 2.891869 -23.65272 8.56462 3.48047 -17.03981 11.14168 90.02675 30.99003 -23.97364 -0 0 9.486161 -11.76672 10.25591 6.31476 6.709907 -23.07016 -3.460101 -86.50632 24.65208 12.02953 0 0 -26.28975 7.138518 13.85214 5.056347
1.622496 95.93323 29.44906 -0.3968673 -0.8915394 3.399397 5.303805 -29.9588 3.775653 -0 13.39 -0 -6.26977 -7.068678 -4.687625 -4.609619 16.95539 -14.07478 -0 18.27389 -0 0.7319085 -19.10604 16.38551 -1.901634 -1.244312 2.552577 3.213089 9.404508 -9.016221 1.255246 21.52471 6.689552 2.852271 -23.08268 8.371741 3.323961 -16.44487 11.13952 90.46048 30.26179 -24.32035 -0 0 8.580067 -12.32693 10.41116 6.298486 6.532508 -23.11839 -3.665095 -85.9416 24.34671 11.05232 0 0 -26.54487 6.854829 13.29286 5.358198
